<!-- Generated by IcoMoon.io -->
<svg version="1.1" xmlns="http://www.w3.org/2000/svg" width="32" height="32" viewBox="0 0 32 32">
<title>search</title>
<path d="M31.636 29.876l-7.81-7.809c1.941-2.334 3.111-5.332 3.111-8.598 0-7.427-6.042-13.469-13.468-13.469s-13.468 6.042-13.468 13.469c0 7.426 6.042 13.468 13.468 13.468 3.266 0 6.264-1.169 8.598-3.111l7.81 7.81c0.243 0.243 0.561 0.364 0.88 0.364s0.637-0.121 0.88-0.364c0.486-0.486 0.486-1.273-0-1.759zM2.488 13.469c0-6.055 4.926-10.98 10.98-10.98s10.98 4.926 10.98 10.98c0 6.054-4.925 10.979-10.98 10.979s-10.98-4.925-10.98-10.979z"></path>
</svg>
